<svg width="244" height="57" viewBox="0 0 244 57" fill="none" xmlns="http://www.w3.org/2000/svg">
<path fill-rule="evenodd" clip-rule="evenodd" d="M28.6419 53.9134C39.0609 53.9134 48.0546 47.8971 52.2361 39.1977C52.9794 39.5997 53.813 39.8597 54.6993 39.9407C50.1797 49.6675 40.212 56.425 28.6419 56.425C12.8235 56.425 0 43.7938 0 28.2125C0 12.6312 12.8235 0 28.6419 0C44.3001 0 57.0235 12.3765 57.2798 27.7397C56.6552 27.538 55.988 27.4288 55.2949 27.4288C55.1016 27.4288 54.9103 27.4373 54.7216 27.454C54.3142 13.6094 42.7926 2.51155 28.6419 2.51155C14.2336 2.51155 2.55112 14.017 2.55112 28.2125C2.55112 42.408 14.2336 53.9134 28.6419 53.9134ZM82.3765 23.6468C82.2761 22.7733 81.8616 22.0967 81.1333 21.6169C80.4049 21.1309 79.4882 20.8879 78.3831 20.8879C77.5919 20.8879 76.9075 21.011 76.3298 21.257C75.7522 21.4969 75.3032 21.8291 74.983 22.2535C74.669 22.6718 74.512 23.1485 74.512 23.6837C74.512 24.1328 74.6188 24.5203 74.8323 24.8463C75.052 25.1723 75.3377 25.4461 75.6894 25.6675C76.0473 25.8828 76.4303 26.0643 76.8384 26.2119C77.2466 26.3534 77.639 26.4703 78.0157 26.5625L79.8995 27.0423C80.5148 27.19 81.1458 27.3899 81.7926 27.6421C82.4393 27.8943 83.039 28.2265 83.5915 28.6386C84.1441 29.0508 84.5899 29.5613 84.9289 30.1703C85.2743 30.7793 85.447 31.5082 85.447 32.3571C85.447 33.4274 85.1644 34.3778 84.5993 35.2082C84.0405 36.0387 83.2273 36.6938 82.1599 37.1736C81.0987 37.6534 79.8147 37.8933 78.3077 37.8933C76.8635 37.8933 75.614 37.6688 74.5591 37.2197C73.5043 36.7707 72.6786 36.134 72.0821 35.3097C71.4856 34.4793 71.1559 33.4951 71.0931 32.3571H74.0129C74.0694 33.0399 74.2954 33.6089 74.691 34.0641C75.0929 34.5131 75.6046 34.8484 76.2262 35.0698C76.8541 35.2851 77.5417 35.3928 78.2889 35.3928C79.1114 35.3928 79.8429 35.2667 80.4834 35.0145C81.1301 34.7561 81.6387 34.3993 82.0092 33.9441C82.3797 33.4828 82.5649 32.9445 82.5649 32.3294C82.5649 31.7696 82.4016 31.3114 82.0751 30.9546C81.7549 30.5978 81.3185 30.3026 80.766 30.0688C80.2197 29.835 79.6012 29.629 78.9105 29.4506L76.6312 28.8416C75.0866 28.4295 73.8622 27.8236 72.958 27.0239C72.0601 26.2242 71.6111 25.1662 71.6111 23.8498C71.6111 22.761 71.9125 21.8106 72.5153 20.9987C73.1181 20.1867 73.9344 19.5562 74.9641 19.1071C75.9939 18.6519 77.1555 18.4243 78.449 18.4243C79.755 18.4243 80.9072 18.6488 81.9056 19.0979C82.9102 19.5469 83.7014 20.1651 84.2791 20.9525C84.8567 21.7337 85.1581 22.6318 85.1832 23.6468H82.3765ZM94.9213 23.4069V25.6214H91.9545V33.4182C91.9545 33.9534 92.0361 34.3563 92.1994 34.6269C92.3626 34.8914 92.573 35.0729 92.8304 35.1713C93.0942 35.2636 93.3798 35.3097 93.6875 35.3097C93.9136 35.3097 94.1114 35.2944 94.2809 35.2636C94.4504 35.2328 94.5823 35.2082 94.6765 35.1898L95.1851 37.4689C95.0218 37.5304 94.7895 37.5919 94.4881 37.6534C94.1867 37.7211 93.81 37.758 93.3579 37.7641C92.6169 37.7764 91.9263 37.6472 91.2858 37.3766C90.6453 37.1059 90.1273 36.6876 89.7317 36.1217C89.3362 35.5558 89.1384 34.8453 89.1384 33.9903V25.6214H87.0192V23.4069H89.1384V20.0114H91.9545V23.4069H94.9213ZM99.9031 36.9706C100.933 37.5673 102.16 37.8656 103.586 37.8656C104.641 37.8656 105.579 37.7088 106.402 37.395C107.231 37.0752 107.918 36.6292 108.465 36.0571C109.017 35.4789 109.4 34.8053 109.614 34.0364L106.948 33.5658C106.779 34.0087 106.534 34.3809 106.214 34.6823C105.893 34.9837 105.513 35.2113 105.074 35.3651C104.634 35.5127 104.148 35.5865 103.614 35.5865C102.791 35.5865 102.072 35.4143 101.457 35.0698C100.842 34.7192 100.361 34.2117 100.016 33.5474C99.7004 32.9288 99.5317 32.1876 99.5099 31.3237H109.793V30.3456C109.793 29.06 109.617 27.9681 109.265 27.07C108.913 26.1658 108.433 25.4307 107.824 24.8648C107.215 24.2988 106.527 23.8836 105.761 23.6191C104.995 23.3546 104.204 23.2224 103.388 23.2224C102.044 23.2224 100.87 23.533 99.8654 24.1543C98.8671 24.7756 98.0884 25.6398 97.5296 26.7471C96.9771 27.8543 96.7008 29.1338 96.7008 30.5855C96.7008 32.0557 96.9771 33.3382 97.5296 34.4332C98.0884 35.522 98.8796 36.3678 99.9031 36.9706ZM99.5146 29.2568C99.5484 28.6476 99.703 28.0786 99.9784 27.5498C100.299 26.9408 100.751 26.4487 101.335 26.0735C101.925 25.6921 102.616 25.5014 103.407 25.5014C104.135 25.5014 104.769 25.6644 105.309 25.9905C105.856 26.3165 106.279 26.7625 106.581 27.3284C106.882 27.8882 107.033 28.531 107.033 29.2568H99.5146ZM116.597 37.8933C115.68 37.8933 114.851 37.7272 114.11 37.395C113.369 37.0567 112.782 36.5677 112.349 35.9279C111.922 35.2882 111.709 34.5039 111.709 33.5751C111.709 32.7754 111.866 32.1172 112.179 31.6005C112.493 31.0838 112.917 30.6747 113.451 30.3733C113.985 30.0719 114.581 29.8443 115.241 29.6905C115.9 29.5367 116.572 29.4198 117.256 29.3399C118.123 29.2414 118.826 29.1615 119.366 29.1C119.906 29.0323 120.298 28.9247 120.543 28.777C120.788 28.6294 120.91 28.3895 120.91 28.0573V27.9927C120.91 27.1869 120.678 26.5625 120.213 26.1196C119.755 25.6767 119.071 25.4553 118.16 25.4553C117.212 25.4553 116.465 25.6614 115.919 26.0735C115.379 26.4795 115.005 26.9316 114.798 27.4299L112.151 26.8393C112.465 25.9782 112.924 25.2831 113.526 24.754C114.135 24.2189 114.836 23.8313 115.627 23.5914C116.418 23.3454 117.25 23.2224 118.123 23.2224C118.7 23.2224 119.312 23.29 119.959 23.4254C120.612 23.5545 121.221 23.7944 121.786 24.1451C122.358 24.4957 122.826 24.997 123.19 25.6491C123.554 26.295 123.736 27.1346 123.736 28.168V37.5796H120.986V35.6419H120.873C120.691 35.9987 120.418 36.3493 120.053 36.6938C119.689 37.0383 119.221 37.3243 118.65 37.5519C118.079 37.7795 117.394 37.8933 116.597 37.8933ZM117.209 35.6788C117.988 35.6788 118.653 35.5281 119.206 35.2267C119.765 34.9253 120.188 34.5316 120.477 34.0456C120.772 33.5535 120.92 33.0276 120.92 32.4678V30.6409C120.819 30.7393 120.625 30.8316 120.336 30.9177C120.053 30.9977 119.73 31.0684 119.366 31.1299C119.002 31.1853 118.647 31.2376 118.302 31.2868C117.956 31.3298 117.667 31.3667 117.435 31.3975C116.889 31.4652 116.39 31.579 115.937 31.7389C115.492 31.8988 115.134 32.1295 114.864 32.4309C114.6 32.7262 114.468 33.1199 114.468 33.612C114.468 34.2948 114.726 34.8115 115.241 35.1621C115.755 35.5066 116.412 35.6788 117.209 35.6788ZM129.245 36.9798C130.162 37.5642 131.204 37.8564 132.372 37.8564C133.251 37.8564 133.967 37.7118 134.52 37.4227C135.072 37.1336 135.505 36.7953 135.819 36.4078C136.14 36.0202 136.384 35.6757 136.554 35.3743H136.789V37.5796H139.54V18.6827H136.724V25.7044H136.554C136.384 25.4092 136.146 25.0678 135.838 24.6802C135.537 24.2927 135.11 23.9544 134.557 23.6653C134.011 23.37 133.289 23.2224 132.391 23.2224C131.229 23.2224 130.19 23.5115 129.273 24.0897C128.357 24.6679 127.635 25.5014 127.107 26.5902C126.586 27.679 126.325 28.9892 126.325 30.5209C126.325 32.0526 126.583 33.3659 127.098 34.4609C127.619 35.5496 128.335 36.3893 129.245 36.9798ZM135.047 34.8761C134.488 35.2944 133.804 35.5035 132.994 35.5035C132.159 35.5035 131.455 35.2851 130.884 34.8484C130.319 34.4055 129.892 33.8057 129.603 33.0491C129.314 32.2925 129.17 31.4405 129.17 30.4932C129.17 29.5582 129.311 28.7186 129.594 27.9743C129.883 27.23 130.309 26.6425 130.875 26.2119C131.44 25.7813 132.146 25.566 132.994 25.566C133.816 25.566 134.507 25.7721 135.066 26.1842C135.625 26.5964 136.049 27.1715 136.337 27.9097C136.626 28.6478 136.771 29.509 136.771 30.4932C136.771 31.4898 136.623 32.3633 136.328 33.1137C136.039 33.8642 135.612 34.4516 135.047 34.8761ZM144.809 42.8943C144.388 42.8943 144.005 42.8605 143.66 42.7928C143.314 42.7313 143.057 42.6637 142.887 42.5898L143.565 40.3292C144.08 40.4646 144.539 40.523 144.941 40.5045C145.342 40.4861 145.697 40.3385 146.005 40.0616C146.319 39.7848 146.595 39.3327 146.834 38.7053L147.182 37.7641L141.889 23.4069H144.903L148.567 34.4055H148.717L152.381 23.4069H155.405L149.443 39.4711C149.166 40.2093 148.815 40.8336 148.388 41.3442C147.961 41.8609 147.452 42.2485 146.862 42.5068C146.272 42.7652 145.587 42.8943 144.809 42.8943ZM170.829 24.8279H173.768C173.604 23.8129 173.29 22.9117 172.826 22.1243C172.361 21.3308 171.774 20.6603 171.065 20.1129C170.355 19.5592 169.554 19.1409 168.663 18.858C167.777 18.5689 166.823 18.4243 165.8 18.4243C164.136 18.4243 162.651 18.8149 161.345 19.5961C160.039 20.3712 159.009 21.4846 158.255 22.9363C157.502 24.3819 157.125 26.1135 157.125 28.1311C157.125 30.1426 157.499 31.8742 158.246 33.3259C158.999 34.7776 160.029 35.8941 161.335 36.6753C162.641 37.4504 164.129 37.8379 165.8 37.8379C166.861 37.8379 167.84 37.6842 168.738 37.3766C169.636 37.069 170.433 36.6354 171.13 36.0756C171.834 35.5097 172.408 34.8392 172.854 34.0641C173.306 33.2829 173.611 32.4278 173.768 31.499L170.829 31.4898C170.71 32.0926 170.493 32.6278 170.179 33.0953C169.871 33.5566 169.495 33.9472 169.049 34.2671C168.603 34.587 168.104 34.8299 167.551 34.996C167.005 35.156 166.427 35.2359 165.818 35.2359C164.72 35.2359 163.731 34.9653 162.852 34.4239C161.972 33.8826 161.279 33.083 160.77 32.0249C160.268 30.9669 160.017 29.669 160.017 28.1311C160.017 26.6056 160.268 25.3138 160.77 24.2558C161.279 23.1978 161.969 22.395 162.842 21.8475C163.721 21.3001 164.716 21.0263 165.828 21.0263C166.443 21.0263 167.024 21.1094 167.57 21.2755C168.123 21.4415 168.622 21.6876 169.068 22.0136C169.514 22.3396 169.89 22.7364 170.198 23.2039C170.506 23.6714 170.716 24.2127 170.829 24.8279ZM182.587 37.8656C181.231 37.8656 180.048 37.5611 179.037 36.9521C178.026 36.3432 177.241 35.4912 176.682 34.3963C176.123 33.3013 175.844 32.0219 175.844 30.5578C175.844 29.0877 176.123 27.802 176.682 26.7009C177.241 25.5999 178.026 24.7448 179.037 24.1358C180.048 23.5269 181.231 23.2224 182.587 23.2224C183.944 23.2224 185.127 23.5269 186.138 24.1358C187.149 24.7448 187.934 25.5999 188.493 26.7009C189.052 27.802 189.331 29.0877 189.331 30.5578C189.331 32.0219 189.052 33.3013 188.493 34.3963C187.934 35.4912 187.149 36.3432 186.138 36.9521C185.127 37.5611 183.944 37.8656 182.587 37.8656ZM182.597 35.5496C183.476 35.5496 184.204 35.322 184.782 34.8668C185.36 34.4116 185.787 33.8057 186.063 33.0491C186.345 32.2925 186.487 31.459 186.487 30.5486C186.487 29.6444 186.345 28.8139 186.063 28.0573C185.787 27.2945 185.36 26.6825 184.782 26.2211C184.204 25.7598 183.476 25.5291 182.597 25.5291C181.711 25.5291 180.977 25.7598 180.393 26.2211C179.815 26.6825 179.385 27.2945 179.103 28.0573C178.826 28.8139 178.688 29.6444 178.688 30.5486C178.688 31.459 178.826 32.2925 179.103 33.0491C179.385 33.8057 179.815 34.4116 180.393 34.8668C180.977 35.322 181.711 35.5496 182.597 35.5496ZM194.76 37.5796V29.1646C194.76 28.4141 194.905 27.7744 195.193 27.2453C195.489 26.7102 195.887 26.3042 196.39 26.0274C196.898 25.7506 197.479 25.6122 198.132 25.6122C199.086 25.6122 199.837 25.9043 200.383 26.4887C200.929 27.0669 201.202 27.8697 201.202 28.897V37.5796H204.019V28.5648C204.019 27.396 203.815 26.4149 203.406 25.6214C202.998 24.8279 202.424 24.2312 201.683 23.8313C200.942 23.4254 200.079 23.2224 199.093 23.2224C198.006 23.2224 197.105 23.45 196.39 23.9052C195.68 24.3604 195.159 24.9632 194.826 25.7137H194.647V23.4069H191.944V37.5796H194.76ZM214.018 23.4069V25.6214H211.051V33.4182C211.051 33.9534 211.133 34.3563 211.296 34.6269C211.459 34.8914 211.67 35.0729 211.927 35.1713C212.191 35.2636 212.477 35.3097 212.784 35.3097C213.01 35.3097 213.208 35.2944 213.378 35.2636C213.547 35.2328 213.679 35.2082 213.773 35.1898L214.282 37.4689C214.119 37.5304 213.886 37.5919 213.585 37.6534C213.283 37.7211 212.907 37.758 212.455 37.7641C211.714 37.7764 211.023 37.6472 210.383 37.3766C209.742 37.1059 209.224 36.6876 208.828 36.1217C208.433 35.5558 208.235 34.8453 208.235 33.9903V25.6214H206.116V23.4069H208.235V20.0114H211.051V23.4069H214.018ZM216.603 23.4069V37.5796H219.419V28.9247C219.419 28.3095 219.57 27.762 219.871 27.2822C220.172 26.7963 220.581 26.418 221.095 26.1473C221.617 25.8705 222.21 25.7321 222.876 25.7321C223.164 25.7321 223.453 25.7536 223.742 25.7967C224.031 25.8336 224.232 25.8674 224.345 25.8982V23.2593C224.207 23.2408 224.015 23.2254 223.77 23.2131C223.532 23.2008 223.325 23.1947 223.149 23.1947C222.301 23.1947 221.541 23.4161 220.869 23.859C220.204 24.2958 219.739 24.8955 219.475 25.6583H219.325V23.4069H216.603ZM231.827 37.8656C230.471 37.8656 229.287 37.5611 228.276 36.9521C227.266 36.3432 226.481 35.4912 225.922 34.3963C225.363 33.3013 225.084 32.0219 225.084 30.5578C225.084 29.0877 225.363 27.802 225.922 26.7009C226.481 25.5999 227.266 24.7448 228.276 24.1358C229.287 23.5269 230.471 23.2224 231.827 23.2224C233.183 23.2224 234.367 23.5269 235.378 24.1358C236.389 24.7448 237.174 25.5999 237.733 26.7009C238.291 27.802 238.571 29.0877 238.571 30.5578C238.571 32.0219 238.291 33.3013 237.733 34.3963C237.174 35.4912 236.389 36.3432 235.378 36.9521C234.367 37.5611 233.183 37.8656 231.827 37.8656ZM231.837 35.5496C232.716 35.5496 233.444 35.322 234.022 34.8668C234.599 34.4116 235.026 33.8057 235.303 33.0491C235.585 32.2925 235.726 31.459 235.726 30.5486C235.726 29.6444 235.585 28.8139 235.303 28.0573C235.026 27.2945 234.599 26.6825 234.022 26.2211C233.444 25.7598 232.716 25.5291 231.837 25.5291C230.951 25.5291 230.217 25.7598 229.633 26.2211C229.055 26.6825 228.625 27.2945 228.342 28.0573C228.066 28.8139 227.928 29.6444 227.928 30.5486C227.928 31.459 228.066 32.2925 228.342 33.0491C228.625 33.8057 229.055 34.4116 229.633 34.8668C230.217 35.322 230.951 35.5496 231.837 35.5496ZM244 37.5796V18.6827H241.184V37.5796H244ZM59.099 33.571C59.099 35.6831 57.3609 37.3954 55.2167 37.3954C53.0725 37.3954 51.3343 35.6831 51.3343 33.571C51.3343 31.4588 53.0725 29.7465 55.2167 29.7465C57.3609 29.7465 59.099 31.4588 59.099 33.571ZM22.214 21.6334C22.9352 22.1158 23.3456 22.7962 23.445 23.6745H26.2241C26.1993 22.6539 25.9008 21.7509 25.3289 20.9654C24.7569 20.1737 23.9735 19.5521 22.9788 19.1006C21.9902 18.649 20.8494 18.4233 19.5562 18.4233C18.2755 18.4233 17.1253 18.6521 16.1057 19.1098C15.086 19.5614 14.2778 20.1953 13.681 21.0118C13.0841 21.8282 12.7857 22.7838 12.7857 23.8786C12.7857 25.2022 13.2302 26.2661 14.1193 27.0701C15.0145 27.8742 16.2269 28.4834 17.7563 28.8979L20.0132 29.5102C20.6971 29.6896 21.3094 29.8968 21.8503 30.1318C22.3975 30.3668 22.8295 30.6637 23.1466 31.0225C23.4699 31.3812 23.6316 31.842 23.6316 32.4048C23.6316 33.0234 23.4482 33.5646 23.0813 34.0284C22.7145 34.4861 22.2109 34.8449 21.5706 35.1047C20.9364 35.3582 20.2121 35.485 19.3977 35.485C18.6578 35.485 17.977 35.3768 17.3553 35.1603C16.7398 34.9377 16.2331 34.6006 15.8352 34.1491C15.4435 33.6913 15.2197 33.1192 15.1638 32.4327H12.2728C12.3349 33.5769 12.6613 34.5666 13.252 35.4015C13.8426 36.2304 14.6602 36.8705 15.7047 37.322C16.7491 37.7736 17.9864 37.9993 19.4163 37.9993C20.9084 37.9993 22.1799 37.7581 23.2306 37.2756C24.2875 36.7932 25.0926 36.1345 25.6459 35.2995C26.2055 34.4645 26.4853 33.5089 26.4853 32.4327C26.4853 31.5791 26.3143 30.8462 25.9723 30.2338C25.6366 29.6215 25.1952 29.1081 24.6481 28.6937C24.101 28.2793 23.5072 27.9453 22.8669 27.6917C22.2265 27.4382 21.6017 27.2371 20.9924 27.0887L19.1272 26.6063C18.7542 26.5135 18.3656 26.396 17.9615 26.2537C17.5574 26.1053 17.1781 25.9228 16.8237 25.7063C16.4756 25.4836 16.1927 25.2084 15.9751 24.8806C15.7637 24.5528 15.658 24.1631 15.658 23.7116C15.658 23.1735 15.8135 22.6941 16.1243 22.2736C16.4414 21.8468 16.8859 21.5128 17.4579 21.2716C18.0299 21.0241 18.7076 20.9004 19.4909 20.9004C20.5851 20.9004 21.4929 21.1448 22.214 21.6334ZM42.0945 24.862H45.0041C44.8425 23.8415 44.5316 22.9354 44.0715 22.1437C43.6115 21.3458 43.0302 20.6716 42.3276 20.1211C41.6251 19.5645 40.8324 19.1439 39.9495 18.8593C39.0729 18.5686 38.1279 18.4233 37.1145 18.4233C35.4669 18.4233 33.9966 18.816 32.7034 19.6016C31.4102 20.3809 30.3906 21.5004 29.6445 22.9601C28.8985 24.4136 28.5255 26.1547 28.5255 28.1835C28.5255 30.206 28.8954 31.9471 29.6352 33.4068C30.3813 34.8665 31.4009 35.9891 32.6941 36.7747C33.9873 37.554 35.4607 37.9436 37.1145 37.9436C38.1652 37.9436 39.1351 37.789 40.0241 37.4798C40.9132 37.1705 41.7028 36.7344 42.3929 36.1716C43.0892 35.6026 43.6581 34.9284 44.0995 34.1491C44.5471 33.3635 44.8487 32.5038 45.0041 31.5698L42.0945 31.5606C41.9763 32.1667 41.7618 32.7048 41.451 33.1749C41.1463 33.6388 40.7733 34.0315 40.3319 34.3532C39.8905 34.6748 39.3962 34.9191 38.8491 35.0861C38.3082 35.2469 37.7362 35.3273 37.1331 35.3273C36.0451 35.3273 35.0659 35.0552 34.1955 34.5109C33.3251 33.9666 32.6381 33.1625 32.1345 32.0987C31.6372 31.0348 31.3885 29.7298 31.3885 28.1835C31.3885 26.6495 31.6372 25.3507 32.1345 24.2868C32.6381 23.223 33.322 22.4158 34.1862 21.8653C35.0566 21.3149 36.042 21.0396 37.1425 21.0396C37.7518 21.0396 38.3269 21.1231 38.8677 21.2901C39.4149 21.4571 39.9091 21.7045 40.3505 22.0323C40.792 22.3601 41.165 22.7591 41.4696 23.2292C41.7743 23.6992 41.9826 24.2435 42.0945 24.862Z" fill="#F8F8F8"/>
</svg>
